<?xml version="1.0" encoding="UTF-8"?>
<svg id="Shapes" xmlns="http://www.w3.org/2000/svg" viewBox="0 0 180 180">
  <defs>
    <style>
      .cls-1 {
        fill: #fff;
      }
    </style>
  </defs>
  <path class="cls-1" d="m55.96,66.47h-18.04c-2.28,0-4.37,1.29-5.38,3.34l-22.1,44.65c-.82,1.66-1.25,3.48-1.25,5.32v29.75c0,4.22,5.69,5.56,7.58,1.79l40.98-81.95c.66-1.33-.3-2.89-1.79-2.89Z"/>
  <path class="cls-1" d="m168.8,26.47h-18.04c-2.28,0-4.37,1.29-5.38,3.34l-41.95,84.65c-.82,1.66-1.25,3.48-1.25,5.32v29.75c0,4.22,5.69,5.56,7.58,1.79l60.82-121.95c.66-1.33-.3-2.89-1.79-2.89Z"/>
  <path class="cls-1" d="m157.23,68.69l-40.97,81.95c-.67,1.33.3,2.89,1.79,2.89h18.04c2.28,0,4.36-1.29,5.38-3.34l22.1-44.65c.82-1.66,1.25-3.48,1.25-5.32v-29.75c0-4.22-5.69-5.56-7.58-1.79Z"/>
  <path class="cls-1" d="m117.74,66.47h-18.04c-2.28,0-4.37,1.29-5.38,3.34l-22.1,44.65c-.82,1.66-1.25,3.48-1.25,5.32v29.75c0,4.22,5.69,5.56,7.58,1.79l40.98-81.95c.66-1.33-.3-2.89-1.79-2.89Z"/>
  <path class="cls-1" d="m87.09,66.47h-18.04c-2.28,0-4.37,1.29-5.38,3.34l-22.1,44.65c-.82,1.66-1.25,3.48-1.25,5.32v29.75c0,4.22,5.69,5.56,7.58,1.79l40.98-81.95c.66-1.33-.3-2.89-1.79-2.89Z"/>
</svg>